<svg height="512" viewBox="0 0 64 64" width="512" xmlns="http://www.w3.org/2000/svg"><g id="Relax-Hardwork-Sleep-Home-Night"><rect fill="#57a4ff" height="40" rx="2" width="35" x="26" y="3"/><path d="m61 5v36a2.006 2.006 0 0 1 -2 2h-4a2.006 2.006 0 0 0 2-2v-36a2.006 2.006 0 0 0 -2-2h4a2.006 2.006 0 0 1 2 2z" fill="#006df0"/><g fill="#ffc477"><path d="m53.29 35.63a2.009 2.009 0 0 1 .74 2.74 1.966 1.966 0 0 1 -1.22.92 1.987 1.987 0 0 1 -1.52-.19l-.87-.51-.04-.03a7.955 7.955 0 0 0 .55-.83l1-1.73.5-.87z"/><path d="m54 59v2h-18l4-4 8 1.14z"/><path d="m54 54v5l-6-.86v-4.14z"/></g><path d="m48 54v4.14l-8-1.14-4 4h-4v-7h1a2.006 2.006 0 0 0 2-2v-7h4a4 4 0 0 0 8 0h3a4 4 0 0 1 4 4v5z" fill="#91dc5a"/><path d="m50.37 24.71a7.005 7.005 0 0 1 2.56 9.56l-.5.86-.5.87c.79-2.89-1.47-5.46-1.47-5.46-3.69 2.05-8.06-.04-8.06-.04.5-.87 1.5-2.6 1.5-2.6-3.95 1.06-5.83.1-5.83.1l.5-.87.5-.86a6.99 6.99 0 0 1 9.56-2.56z" fill="#ffd422"/><path d="m52.93 34.27-.5.86-.5.87c.79-2.89-1.47-5.46-1.47-5.46a4.535 4.535 0 0 1 -.59.28 7.011 7.011 0 0 0 -3.5-6.11l-1.74-1a7.243 7.243 0 0 0 -1.49-.65 6.963 6.963 0 0 1 5.49.65l1.74 1a7.005 7.005 0 0 1 2.56 9.56z" fill="#ebbf00"/><path d="m50.46 30.54s2.26 2.57 1.47 5.46l-1 1.73a7.955 7.955 0 0 1 -.55.83 6.972 6.972 0 0 1 -4.38 2.57 6.876 6.876 0 0 1 -4.63-.84l-1.37-.79-.37-.21a7 7 0 0 1 -2.99-8.67 6.6 6.6 0 0 1 .43-.89l1-1.73s1.88.96 5.83-.1c0 0-1 1.73-1.5 2.6 0 0 4.37 2.09 8.06.04z" fill="#ffc477"/><path d="m51.93 36-1 1.73a7.955 7.955 0 0 1 -.55.83 6.972 6.972 0 0 1 -4.38 2.57 6.882 6.882 0 0 1 -3.15-.2 6.916 6.916 0 0 0 3.53-2.37 7.955 7.955 0 0 0 .55-.83l1-1.73a5.956 5.956 0 0 0 -.84-4.57 7.383 7.383 0 0 0 3.37-.89s2.26 2.57 1.47 5.46z" fill="#ffa733"/><path d="m46 45h1a4 4 0 1 1 -8 0h1v-5.5l1.37.79a6.876 6.876 0 0 0 4.63.84z" fill="#ffc477"/><path d="m38.57 27.13-.5.87-1 1.73a6.6 6.6 0 0 0 -.43.89l-.06-.02-.87-.5a2.018 2.018 0 0 1 -.74-2.73 2.009 2.009 0 0 1 2.74-.74z" fill="#ffc477"/><path d="m33 8a4 4 0 0 1 0 8 3.743 3.743 0 0 1 -3-1 3 3 0 0 0 0-6 3.743 3.743 0 0 1 3-1z" fill="#ffd422"/><path d="m37 12a4 4 0 0 1 -4 4 6.42 6.42 0 0 1 -1.18-.09 3.994 3.994 0 0 0 0-7.82 6.42 6.42 0 0 1 1.18-.09 4 4 0 0 1 4 4z" fill="#ebbf00"/><path d="m35 45v7a2.006 2.006 0 0 1 -2 2h-11.83l.83-5h-6l-.83 5h-10.17a2.006 2.006 0 0 1 -2-2v-16a2.006 2.006 0 0 1 2-2h28a2.006 2.006 0 0 1 2 2z" fill="#c6c5ca"/><path d="m22 49-.83 5-1.17 7h-6l1.17-7 .83-5z" fill="#898890"/><circle cx="12" cy="15" fill="#bdfdff" r="9"/><path d="m21 15a9 9 0 0 1 -9 9 9.356 9.356 0 0 1 -2-.22 9.006 9.006 0 0 0 0-17.56 9.356 9.356 0 0 1 2-.22 9 9 0 0 1 9 9z" fill="#00e7f0"/><path d="m35 36v16a2.006 2.006 0 0 1 -2 2h-4a2.006 2.006 0 0 0 2-2v-16a2.006 2.006 0 0 0 -2-2h4a2.006 2.006 0 0 1 2 2z" fill="#acabb1"/><path d="m22 49-.83 5-1.17 7h-3l1.17-7 .83-5z" fill="#787680"/><path d="m51 58.6 3 .4v2h-3v-2z" fill="#ffa733"/><path d="m54 54v5l-3-.4v-4.6z" fill="#ffa733"/><path d="m54 49v5h-3v-5a4 4 0 0 0 -4-4h3a4 4 0 0 1 4 4z" fill="#5eac24"/><path d="m45 19a1 1 0 0 1 -1 1h-3a.987.987 0 0 1 -.92-.62 1 1 0 0 1 .21-1.09l1.3-1.29h-.59a1 1 0 0 1 0-2h3a.987.987 0 0 1 .92.62 1 1 0 0 1 -.21 1.09l-1.3 1.29h.59a1 1 0 0 1 1 1z"/><path d="m53 14a1 1 0 0 1 -1 1h-4a.987.987 0 0 1 -.92-.62 1 1 0 0 1 .21-1.09l2.3-2.29h-1.59a1 1 0 0 1 0-2h4a.987.987 0 0 1 .92.62 1 1 0 0 1 -.21 1.09l-2.3 2.29h1.59a1 1 0 0 1 1 1z"/><path d="m62 8a1 1 0 0 1 -1 1h-5a.987.987 0 0 1 -.92-.62 1 1 0 0 1 .21-1.09l3.3-3.29h-2.59a1 1 0 0 1 0-2h5a.987.987 0 0 1 .92.62 1 1 0 0 1 -.21 1.09l-3.3 3.29h2.59a1 1 0 0 1 1 1z"/><path d="m12 5a10 10 0 1 0 10 10 10.016 10.016 0 0 0 -10-10zm0 18a8 8 0 1 1 8-8 8.011 8.011 0 0 1 -8 8z"/><path d="m12 16h3a1 1 0 0 0 0-2h-.586l1.293-1.293a1 1 0 0 0 -1.414-1.414l-3 3a1 1 0 0 0 .707 1.707z"/><path d="m30 14a1 1 0 0 0 -.75 1.662 4.739 4.739 0 0 0 3.75 1.338 5 5 0 0 0 0-10 4.739 4.739 0 0 0 -3.75 1.338 1 1 0 0 0 .75 1.662 2 2 0 0 1 0 4zm2.65-4.994c.112-.006.228-.006.35-.006a3 3 0 0 1 0 6c-.122 0-.238 0-.35-.006a4 4 0 0 0 0-5.988z"/><path d="m61 60h-6v-11a5 5 0 0 0 -5-5h-3v-2.06a7.913 7.913 0 0 0 3.57-2.11l.22.13a2.881 2.881 0 0 0 2.27.3 2.947 2.947 0 0 0 1.83-1.39 2.994 2.994 0 0 0 -1.1-4.1 8.008 8.008 0 0 0 -2.92-10.93l-1.74-1a7.985 7.985 0 0 0 -10.92 2.93 3.012 3.012 0 0 0 -1.5-.4 2.971 2.971 0 0 0 -2.6 1.5 3 3 0 0 0 1.1 4.09l.22.13a7.838 7.838 0 0 0 -.26 2.85 2.966 2.966 0 0 0 -2.17-.94h-28a3.009 3.009 0 0 0 -3 3v16a3.009 3.009 0 0 0 3 3h8.99l-.84 5h-10.15a1 1 0 0 0 0 2h58a1 1 0 0 0 0-2zm-7.84-22.13a1.016 1.016 0 0 1 -1.37.36l1-1.73a1 1 0 0 1 .37 1.37zm-13.22-11.1a6 6 0 0 1 8.19-2.2l1.74 1a6.006 6.006 0 0 1 2.78 6.79 8.819 8.819 0 0 0 -1.43-2.48 1 1 0 0 0 -1.24-.22 8 8 0 0 1 -6.12.31l.91-1.57a1.018 1.018 0 0 0 -.07-1.11 1 1 0 0 0 -1.06-.35 10.693 10.693 0 0 1 -4.03.4zm-1.4 2.43a9.665 9.665 0 0 0 3.4.11l-.4.69a.975.975 0 0 0 -.09.8 1 1 0 0 0 .52.6c.19.09 4.29 2.01 8.17.4a5.145 5.145 0 0 1 .84 3.84l-.92 1.59a5.988 5.988 0 0 1 -8.19 2.2l-1.74-1a6.005 6.005 0 0 1 -2.19-8.2zm7.29 16.77a2.988 2.988 0 0 1 -5.66 0 1 1 0 0 0 .83-.97v-3.77a7.991 7.991 0 0 0 3.85 1.01c.05 0 .1-.01.15-.01v2.77a1 1 0 0 0 .83.97zm-6.83-5.9v3.93h-3v-7.15a7.88 7.88 0 0 0 3 3.22zm-3.16-12.2a1 1 0 0 1 1.37-.37l-1 1.73a.935.935 0 0 1 -.47-.62.963.963 0 0 1 .1-.74zm-21.52 25.13h-9.32a1 1 0 0 1 -1-1v-16a1 1 0 0 1 1-1h28a1 1 0 0 1 1 1v16a1 1 0 0 1 -1 1h-10.65l.64-3.84a1 1 0 0 0 -.99-1.16h-6a1 1 0 0 0 -.99.84zm4.83 7h-3.97l1.67-10h3.97zm11.85 0h-9.82l.83-5h8.99zm22 0h-14.59l1.94-1.94 12.65 1.81zm0-2.15-4-.57v-2.28h4zm0-4.85h-4a1 1 0 0 0 -2 0v3.99l-6.86-.98a1.033 1.033 0 0 0 -.85.28l-3.7 3.71h-2.59v-5a3.009 3.009 0 0 0 3-3v-6h2.1a5 5 0 0 0 9.8 0h2.1a3.009 3.009 0 0 1 3 3z"/><path d="m11 37h-2a1 1 0 0 0 0 2h2a1 1 0 0 0 0-2z"/><path d="m18 38a1 1 0 0 0 -1-1h-2a1 1 0 0 0 0 2h2a1 1 0 0 0 1-1z"/><path d="m21 39h2a1 1 0 0 0 0-2h-2a1 1 0 0 0 0 2z"/><path d="m27 39h2a1 1 0 0 0 0-2h-2a1 1 0 0 0 0 2z"/><path d="m53 3a1 1 0 0 1 -1 1h-24a1 1 0 0 0 -1 1v25a1 1 0 0 1 -2 0v-25a3.009 3.009 0 0 1 3-3h24a1 1 0 0 1 1 1z"/><path d="m61 11a1 1 0 0 0 -1 1v29a1 1 0 0 1 -1 1h-4a1 1 0 0 0 0 2h4a3 3 0 0 0 3-3v-29a1 1 0 0 0 -1-1z"/></g></svg>