<?xml version="1.0" encoding="utf-8"?>
<!-- Generator: Adobe Illustrator 16.0.0, SVG Export Plug-In . SVG Version: 6.00 Build 0)  -->
<!DOCTYPE svg PUBLIC "-//W3C//DTD SVG 1.1//EN" "http://www.w3.org/Graphics/SVG/1.1/DTD/svg11.dtd">
<svg version="1.1" id="Capa_1" xmlns="http://www.w3.org/2000/svg" xmlns:xlink="http://www.w3.org/1999/xlink" x="0px" y="0px"
	 width="243px" height="243px" viewBox="2.5 -0.5 243 243" enable-background="new 2.5 -0.5 243 243" xml:space="preserve">
<g>
	
		<linearGradient id="SVGID_1_" gradientUnits="userSpaceOnUse" x1="45.3105" y1="-330.2358" x2="45.3105" y2="-267.9318" gradientTransform="matrix(4.0155 0 0 4.0155 -41.8801 1327.4729)">
		<stop  offset="0" style="stop-color:#FC5C7D"/>
		<stop  offset="0.129" style="stop-color:#F35E85"/>
		<stop  offset="0.343" style="stop-color:#D9659B"/>
		<stop  offset="0.616" style="stop-color:#B070BF"/>
		<stop  offset="0.934" style="stop-color:#777FF0"/>
		<stop  offset="1" style="stop-color:#6A82FB"/>
	</linearGradient>
	<path fill="url(#SVGID_1_)" d="M136.047,144.629h8.03v8.031h-8.03V144.629z"/>
	
		<linearGradient id="SVGID_2_" gradientUnits="userSpaceOnUse" x1="49.3101" y1="-330.2358" x2="49.3101" y2="-267.9318" gradientTransform="matrix(4.0155 0 0 4.0155 -41.8801 1327.4729)">
		<stop  offset="0" style="stop-color:#FC5C7D"/>
		<stop  offset="0.129" style="stop-color:#F35E85"/>
		<stop  offset="0.343" style="stop-color:#D9659B"/>
		<stop  offset="0.616" style="stop-color:#B070BF"/>
		<stop  offset="0.934" style="stop-color:#777FF0"/>
		<stop  offset="1" style="stop-color:#6A82FB"/>
	</linearGradient>
	<path fill="url(#SVGID_2_)" d="M152.108,144.629h8.03v8.031h-8.03V144.629z"/>
	
		<linearGradient id="SVGID_3_" gradientUnits="userSpaceOnUse" x1="53.3105" y1="-330.2358" x2="53.3105" y2="-267.9318" gradientTransform="matrix(4.0155 0 0 4.0155 -41.8801 1327.4729)">
		<stop  offset="0" style="stop-color:#FC5C7D"/>
		<stop  offset="0.129" style="stop-color:#F35E85"/>
		<stop  offset="0.343" style="stop-color:#D9659B"/>
		<stop  offset="0.616" style="stop-color:#B070BF"/>
		<stop  offset="0.934" style="stop-color:#777FF0"/>
		<stop  offset="1" style="stop-color:#6A82FB"/>
	</linearGradient>
	<path fill="url(#SVGID_3_)" d="M168.17,144.629h8.031v8.031h-8.031V144.629z"/>
	
		<linearGradient id="SVGID_4_" gradientUnits="userSpaceOnUse" x1="29.3105" y1="-330.2358" x2="29.3105" y2="-267.9318" gradientTransform="matrix(4.0155 0 0 4.0155 -41.8801 1327.4729)">
		<stop  offset="0" style="stop-color:#FC5C7D"/>
		<stop  offset="0.129" style="stop-color:#F35E85"/>
		<stop  offset="0.343" style="stop-color:#D9659B"/>
		<stop  offset="0.616" style="stop-color:#B070BF"/>
		<stop  offset="0.934" style="stop-color:#777FF0"/>
		<stop  offset="1" style="stop-color:#6A82FB"/>
	</linearGradient>
	<path fill="url(#SVGID_4_)" d="M71.799,144.629h8.031v8.031h-8.031V144.629z"/>
	
		<linearGradient id="SVGID_5_" gradientUnits="userSpaceOnUse" x1="33.3105" y1="-330.2358" x2="33.3105" y2="-267.9318" gradientTransform="matrix(4.0155 0 0 4.0155 -41.8801 1327.4729)">
		<stop  offset="0" style="stop-color:#FC5C7D"/>
		<stop  offset="0.129" style="stop-color:#F35E85"/>
		<stop  offset="0.343" style="stop-color:#D9659B"/>
		<stop  offset="0.616" style="stop-color:#B070BF"/>
		<stop  offset="0.934" style="stop-color:#777FF0"/>
		<stop  offset="1" style="stop-color:#6A82FB"/>
	</linearGradient>
	<path fill="url(#SVGID_5_)" d="M87.861,144.629h8.031v8.031h-8.031V144.629z"/>
	
		<linearGradient id="SVGID_6_" gradientUnits="userSpaceOnUse" x1="37.3105" y1="-330.2358" x2="37.3105" y2="-267.9318" gradientTransform="matrix(4.0155 0 0 4.0155 -41.8801 1327.4729)">
		<stop  offset="0" style="stop-color:#FC5C7D"/>
		<stop  offset="0.129" style="stop-color:#F35E85"/>
		<stop  offset="0.343" style="stop-color:#D9659B"/>
		<stop  offset="0.616" style="stop-color:#B070BF"/>
		<stop  offset="0.934" style="stop-color:#777FF0"/>
		<stop  offset="1" style="stop-color:#6A82FB"/>
	</linearGradient>
	<path fill="url(#SVGID_6_)" d="M103.923,144.629h8.031v8.031h-8.031V144.629z"/>
</g>
<g>
	<g>
		<g>
			<circle fill="#E6E9ED" cx="57.371" cy="156.275" r="50.952"/>
		</g>
		<g>
			<circle fill="#E6E9ED" cx="190.629" cy="156.275" r="50.952"/>
		</g>
		<g>
			<circle fill="#E6E9ED" cx="124" cy="54.371" r="50.952"/>
		</g>
		<g>
			<path fill="#B27946" d="M143.205,34.774h-38.41c1.803-8.937,9.72-15.677,19.205-15.677
				C133.485,19.097,141.401,25.838,143.205,34.774L143.205,34.774z"/>
		</g>
		<g>
			<path fill="#656D78" d="M76.576,136.678H38.167C39.969,127.74,47.886,121,57.371,121C66.855,121,74.773,127.74,76.576,136.678z"
				/>
		</g>
		<g>
			<path fill="#656D78" d="M209.834,136.678h-38.409c1.803-8.938,9.72-15.678,19.204-15.678
				C200.114,121,208.031,127.74,209.834,136.678L209.834,136.678z"/>
		</g>
		<g>
			<path fill="#FF826E" d="M86.531,193.391c0.274,1.333,0.667,2.586,1.176,3.841h-0.039c-8.466,6.271-18.93,9.995-30.296,9.995
				c-15.442,0-29.317-6.898-38.645-17.755c3.762-13.366,14.07-23.595,26.887-27.514v2.155c0,3.252,1.332,6.191,3.449,8.309
				c2.116,2.117,5.056,3.449,8.309,3.449c6.506,0,11.758-5.251,11.758-11.758v-2.117c4.272,1.255,8.27,3.293,11.837,5.88
				c0.078,0.627,0.156,1.254,0.313,1.88L86.531,193.391z"/>
		</g>
		<g>
			<path fill="#FF826E" d="M229.273,189.472c-9.328,10.856-23.202,17.755-38.645,17.755c-8.465,0-16.5-2.078-23.516-5.723v-28.886
				v-4.821c3.565-2.548,7.524-4.546,11.758-5.839v2.155c0,3.252,1.332,6.191,3.449,8.309c2.116,2.117,5.056,3.449,8.309,3.449
				c6.506,0,11.758-5.251,11.758-11.758v-2.155c4.547,1.371,8.779,3.565,12.503,6.388C221.67,173.52,226.844,180.81,229.273,189.472
				z"/>
		</g>
		<g>
			<path fill="#FCD770" d="M162.646,87.568c-3.097,3.645-6.742,6.82-10.739,9.445c-7.996,5.252-17.599,8.31-27.906,8.31
				c-1.333,0-2.626-0.039-3.919-0.157c-0.079-4.233-3.567-7.682-7.839-7.682c-2.155,0-4.115,0.862-5.526,2.313
				c-0.588,0.588-1.058,1.215-1.45,1.959c-3.253-1.293-6.31-2.861-9.171-4.743c-4.037-2.625-7.643-5.8-10.739-9.445
				c3.762-13.365,14.07-23.594,26.886-27.514v2.155c0,3.253,1.333,6.193,3.45,8.31c2.116,2.116,5.055,3.449,8.309,3.449
				c6.506,0,11.758-5.252,11.758-11.758v-2.155c4.546,1.372,8.78,3.566,12.503,6.388C155.041,71.616,160.215,78.906,162.646,87.568
				L162.646,87.568z"/>
		</g>
		<g>
			<path fill="#F0D0B4" d="M135.758,60.054v2.155c0,6.506-5.252,11.758-11.758,11.758c-3.253,0-6.192-1.333-8.309-3.449
				c-2.117-2.117-3.45-5.056-3.45-8.31v-2.155c3.724-1.176,7.682-1.764,11.758-1.764S132.035,58.878,135.758,60.054z"/>
		</g>
		<g>
			<path fill="#F0D0B4" d="M124,58.291c-10.817,0-19.597-8.779-19.597-19.597c0-1.333,0.118-2.665,0.392-3.919h38.41
				c0.273,1.254,0.392,2.586,0.392,3.919C143.597,49.511,134.817,58.291,124,58.291z"/>
		</g>
		<g>
			<path fill="#F0D0B4" d="M69.129,161.996v2.117c0,6.507-5.251,11.758-11.758,11.758c-3.253,0-6.193-1.332-8.309-3.449
				c-2.117-2.117-3.449-5.057-3.449-8.309v-2.155c3.723-1.177,7.682-1.764,11.758-1.764S65.406,160.821,69.129,161.996z"/>
		</g>
		<g>
			<path fill="#F0D0B4" d="M38.167,136.678h38.409c0.274,1.255,0.392,2.586,0.392,3.919c0,10.818-8.779,19.598-19.597,19.598
				s-19.597-8.779-19.597-19.598C37.774,139.264,37.892,137.933,38.167,136.678L38.167,136.678z"/>
		</g>
		<g>
			<path fill="#F0D0B4" d="M202.387,161.958v2.155c0,6.507-5.252,11.758-11.758,11.758c-3.253,0-6.192-1.332-8.309-3.449
				c-2.117-2.117-3.449-5.057-3.449-8.309v-2.155c3.724-1.137,7.682-1.764,11.758-1.764S198.664,160.781,202.387,161.958z"/>
		</g>
		<g>
			<path fill="#F0D0B4" d="M171.425,136.678h38.409c0.274,1.255,0.393,2.586,0.393,3.919c0,10.818-8.78,19.598-19.598,19.598
				s-19.597-8.779-19.597-19.598C171.032,139.264,171.15,137.933,171.425,136.678L171.425,136.678z"/>
		</g>
		<g>
			<path fill="#B4DD7F" d="M167.113,215.064v23.517h-62.71v-23.517l1.646-0.822c9.25-4.626,19.401-7.016,29.708-7.016
				c10.309,0,20.459,2.39,29.709,7.016L167.113,215.064z"/>
		</g>
		<g>
			<path fill="#F0D0B4" d="M151.436,144.517c0-4.312,3.527-7.839,7.838-7.839c2.157,0,4.116,0.861,5.526,2.313
				c1.451,1.41,2.313,3.37,2.313,5.526v23.28v4.821v28.886v13.561l-1.646-0.822c-9.25-4.626-19.4-7.016-29.709-7.016
				c-10.308,0-20.458,2.39-29.708,7.016l-1.646,0.822l-7.564-5.683c-4.155-3.097-7.329-7.329-9.132-12.15
				c-0.509-1.255-0.901-2.508-1.176-3.841l-5.252-23.635c-0.157-0.626-0.235-1.253-0.313-1.88c-0.039-0.549-0.079-1.06-0.079-1.607
				c0-3.057,0.863-5.996,2.43-8.505c1.529-2.508,3.763-4.586,6.506-5.958l14.58-7.289v-7.839v-31.355
				c0-1.293,0.314-2.508,0.863-3.567c0.392-0.744,0.862-1.372,1.45-1.959c1.411-1.451,3.371-2.313,5.526-2.313
				c4.272,0,7.761,3.449,7.839,7.682v0.157v23.515c0-2.155,0.862-4.114,2.312-5.525c1.411-1.45,3.371-2.313,5.526-2.313
				c4.312,0,7.839,3.527,7.839,7.838v7.84c0-2.156,0.862-4.115,2.313-5.527c1.41-1.449,3.37-2.313,5.525-2.313
				c1.294,0,2.508,0.315,3.566,0.863c2.549,1.294,4.272,3.959,4.272,6.977V144.517z"/>
		</g>
	</g>
	<path d="M190.629,101.403c-9.563,0-18.695,2.427-26.699,6.879l-6.745-10.316c13.15-10.033,21.687-25.816,21.687-43.595
		C178.871,24.114,154.257-0.5,124-0.5c-30.257,0-54.871,24.614-54.871,54.871c0,17.543,8.18,33.479,21.639,43.67l-6.714,10.269
		c-7.987-4.438-17.116-6.907-26.683-6.907c-30.257,0-54.871,24.614-54.871,54.871c0,30.258,24.614,54.872,54.871,54.872
		c10.276,0,20.122-2.806,28.752-8.138c2.109,3.681,4.931,6.941,8.372,9.521l5.989,4.495V242.5h70.548v-34.984
		c6.228,2.375,12.896,3.63,19.597,3.63c30.257,0,54.871-24.614,54.871-54.872C245.5,126.017,220.886,101.403,190.629,101.403z
		 M237.662,156.273c0,9.211-2.701,17.782-7.294,25.046c-5.061-10.524-14.122-18.563-24.963-22.451
		c5.326-4.314,8.74-10.899,8.74-18.271c0-12.969-10.547-23.516-23.517-23.516c-11.452,0-21.008,8.234-23.085,19.091
		c-2.124-2.108-5.048-3.414-8.271-3.414c-1.548,0-3.017,0.317-4.373,0.862c-0.471-1.739-1.325-3.304-2.478-4.625
		c8.834-12.388,22.838-19.753,38.206-19.753C216.563,109.242,237.662,130.34,237.662,156.273z M171.032,153.57
		c1.324,1.995,2.943,3.778,4.802,5.282c-1.635,0.585-3.242,1.246-4.802,2.023V153.57z M190.629,156.273
		c-8.646,0-15.678-7.03-15.678-15.677h31.354C206.306,149.243,199.275,156.273,190.629,156.273z M177.131,132.758
		c2.721-4.664,7.721-7.839,13.498-7.839s10.778,3.175,13.499,7.839H177.131z M190.629,164.113c2.646,0,5.235,0.317,7.749,0.874
		c-0.439,3.907-3.724,6.964-7.749,6.964c-4.001,0-7.274-3.025-7.745-6.905C185.416,164.494,187.987,164.113,190.629,164.113z
		 M157.386,112.589c-4.539,3.464-8.561,7.666-11.908,12.522c-0.614-0.103-1.237-0.192-1.881-0.192c-1.548,0-3.018,0.318-4.374,0.862
		c-1.352-4.997-5.883-8.7-11.304-8.7c-1.38,0-2.688,0.282-3.919,0.721v-8.561c9.673,0,18.753-2.535,26.651-6.949L157.386,112.589z
		 M124,101.403c-0.247,0-0.486-0.023-0.729-0.027c-1.635-4.539-5.938-7.812-11.03-7.812c-3.202,0-6.102,1.293-8.223,3.375
		c-5.463-2.56-10.273-6.06-14.259-10.276c3.25-9.434,10.218-16.936,18.966-21.027c1.572,7,7.812,12.251,15.274,12.251
		c7.463,0,13.702-5.252,15.273-12.248c8.713,4.076,15.666,11.531,18.931,20.914C149.62,95.669,137.479,101.403,124,101.403
		L124,101.403z M108.323,38.693h31.355c0,8.646-7.031,15.677-15.678,15.677C115.354,54.371,108.323,47.339,108.323,38.693
		L108.323,38.693z M110.502,30.855c2.72-4.664,7.721-7.839,13.498-7.839s10.778,3.175,13.498,7.839H110.502z M124,62.209
		c2.646,0,5.236,0.317,7.748,0.874c-0.438,3.908-3.724,6.965-7.748,6.965c-4.025,0-7.31-3.057-7.749-6.965
		C118.764,62.527,121.354,62.209,124,62.209z M124,7.339c25.935,0,47.032,21.098,47.032,47.032c0,9.21-2.7,17.782-7.295,25.045
		c-5.059-10.523-14.12-18.562-24.962-22.45c5.327-4.315,8.741-10.9,8.741-18.272c0-12.969-10.548-23.516-23.517-23.516
		c-12.969,0-23.516,10.547-23.516,23.516c0,7.372,3.414,13.957,8.74,18.269c-10.872,3.899-19.957,11.97-25.009,22.536
		c-4.629-7.337-7.247-15.971-7.247-25.127C76.968,28.437,98.066,7.339,124,7.339L124,7.339z M97.333,102.313
		c1.074,0.592,2.164,1.161,3.285,1.689c-0.051,0.439-0.133,0.87-0.133,1.321v17.022c-2.889-3.676-6.201-6.953-9.873-9.748
		L97.333,102.313z M57.371,109.242c18.793,0,35.623,11.073,43.113,28.254v4.598l-12.416,6.208
		c-5.292,2.646-9.007,7.369-10.434,12.91c-1.768-0.917-3.599-1.692-5.464-2.359c5.311-4.318,8.716-10.891,8.716-18.256
		c0-12.969-10.546-23.516-23.516-23.516c-12.97,0-23.516,10.547-23.516,23.516c0,7.372,3.413,13.957,8.74,18.269
		c-10.841,3.888-19.907,11.926-24.962,22.45c-4.594-7.26-7.294-15.831-7.294-25.042C10.339,130.34,31.437,109.242,57.371,109.242
		L57.371,109.242z M41.693,140.597h31.355c0,8.646-7.031,15.677-15.677,15.677C48.725,156.273,41.693,149.243,41.693,140.597z
		 M43.873,132.758c2.72-4.664,7.721-7.839,13.498-7.839c5.777,0,10.778,3.175,13.498,7.839H43.873z M57.371,164.113
		c2.638,0,5.228,0.302,7.752,0.85c-0.432,3.92-3.72,6.988-7.752,6.988c-4.025,0-7.31-3.057-7.749-6.964
		C52.135,164.431,54.725,164.113,57.371,164.113z M57.371,203.306c-13.479,0-25.621-5.733-34.204-14.85
		c3.265-9.384,10.218-16.837,18.931-20.914c1.572,6.997,7.811,12.248,15.273,12.248c7.474,0,13.722-5.264,15.281-12.275
		c1.626,0.76,3.203,1.646,4.719,2.653c0.032,0.149,0.043,0.298,0.074,0.446l5.251,23.639c0.106,0.466,0.248,0.921,0.373,1.383
		C75.427,200.646,66.609,203.306,57.371,203.306L57.371,203.306z M163.194,234.662h-54.872v-17.171
		c16.998-8.302,37.869-8.302,54.872,0V234.662z M163.194,208.88c-18.48-7.813-40.347-7.185-58.348,1.618l-5.647-4.236
		c-4.492-3.366-7.631-8.239-8.846-13.71L85.1,168.91c-0.196-0.866-0.293-1.756-0.293-2.649c0-4.664,2.59-8.862,6.765-10.946
		l8.913-4.457v8.411c0,3.911-2.175,7.431-5.671,9.179l3.508,7.013c6.169-3.094,10.002-9.298,10.002-16.191v-53.946
		c0-2.164,1.759-3.92,3.919-3.92c2.16,0,3.919,1.756,3.919,3.92v62.709H124v-39.194c0-2.162,1.76-3.919,3.919-3.919
		c2.16,0,3.919,1.757,3.919,3.919v39.194h7.84v-31.354c0-2.164,1.76-3.92,3.919-3.92c2.16,0,3.92,1.756,3.92,3.92v31.354h7.838
		v-23.516c0-2.164,1.761-3.92,3.919-3.92c2.16,0,3.921,1.756,3.921,3.92V208.88z M190.629,203.306
		c-6.777,0-13.478-1.551-19.597-4.357v-28.964c1.398-0.905,2.834-1.729,4.327-2.427c1.579,6.988,7.811,12.232,15.27,12.232
		c7.463,0,13.702-5.251,15.273-12.248c8.714,4.077,15.666,11.53,18.932,20.914C216.25,197.572,204.107,203.306,190.629,203.306
		L190.629,203.306z"/>
</g>
</svg>
